<?xml version="1.0" standalone="no"?>
<!DOCTYPE svg PUBLIC "-//W3C//DTD SVG 20010904//EN"
 "http://www.w3.org/TR/2001/REC-SVG-20010904/DTD/svg10.dtd">
<svg version="1.0" xmlns="http://www.w3.org/2000/svg"
 width="1196.000000pt" height="1200.000000pt" viewBox="0 0 1196.000000 1200.000000"
 preserveAspectRatio="xMidYMid meet">

<g transform="translate(0.000000,1200.000000) scale(0.100000,-0.100000)"
fill="#000000" stroke="none">
<path d="M0 6000 l0 -6000 5980 0 5980 0 0 6000 0 6000 -5980 0 -5980 0 0
-6000z m3251 4450 c4 -151 7 -447 8 -657 1 -359 0 -383 -17 -392 -46 -25 -46
-34 -43 660 1 360 5 657 8 662 3 4 12 7 21 5 15 -3 18 -33 23 -278z m228 -781
c0 -119 -2 -232 -6 -250 -7 -33 -7 -33 -14 -9 -10 34 -11 361 -1 566 l7 169 6
-130 c4 -71 7 -227 8 -346z m385 445 c19 -18 20 -28 6 -55 -20 -37 -80 -18
-80 26 0 42 44 59 74 29z m1816 -279 c7 -8 10 -25 6 -40 -11 -43 -86 -30 -86
15 0 37 55 55 80 25z m-172 -42 c4 -25 -5 -29 -106 -43 -398 -56 -862 -230
-1233 -463 -104 -66 -147 -80 -166 -54 -43 55 -9 88 195 190 345 172 703 294
1082 368 173 33 224 34 228 2z m755 10 c-13 -2 -35 -2 -50 0 -16 2 -5 4 22 4
28 0 40 -2 28 -4z m367 -39 c543 -89 1008 -271 1455 -571 61 -40 121 -82 135
-92 40 -31 14 -37 -27 -7 -216 160 -538 336 -803 441 -324 128 -620 201 -1055
259 -16 2 8 2 55 -1 47 -2 155 -15 240 -29z m1680 21 c15 -18 6 -61 -14 -68
-25 -10 -56 5 -62 29 -8 30 11 54 41 54 12 0 28 -7 35 -15z m509 -613 c1 -135
-2 -173 -11 -170 -16 6 -24 498 -11 648 8 92 8 89 14 -105 3 -110 7 -278 8
-373z m-4863 444 c56 -56 42 -131 -32 -162 -72 -30 -139 15 -139 93 0 38 5 49
33 74 46 42 93 40 138 -5z m4655 -598 c-2 -10 -7 -15 -12 -12 -11 6 -12 169
-1 415 l7 184 5 -285 c3 -157 3 -293 1 -302z m-2828 395 c-7 -2 -21 -2 -30 0
-10 3 -4 5 12 5 17 0 24 -2 18 -5z m465 0 c-10 -2 -26 -2 -35 0 -10 3 -2 5 17
5 19 0 27 -2 18 -5z m115 -10 c-7 -2 -19 -2 -25 0 -7 3 -2 5 12 5 14 0 19 -2
13 -5z m80 -10 c-7 -2 -21 -2 -30 0 -10 3 -4 5 12 5 17 0 24 -2 18 -5z m-946
-9 c-3 -3 -12 -4 -19 -1 -8 3 -5 6 6 6 11 1 17 -2 13 -5z m1020 0 c-3 -3 -12
-4 -19 -1 -8 3 -5 6 6 6 11 1 17 -2 13 -5z m-1080 -10 c-3 -3 -12 -4 -19 -1
-8 3 -5 6 6 6 11 1 17 -2 13 -5z m1200 -10 c-3 -3 -12 -4 -19 -1 -8 3 -5 6 6
6 11 1 17 -2 13 -5z m-814 -61 c-13 -2 -33 -2 -45 0 -13 2 -3 4 22 4 25 0 35
-2 23 -4z m410 0 c-7 -2 -19 -2 -25 0 -7 3 -2 5 12 5 14 0 19 -2 13 -5z m2037
-8 c0 -8 -7 -15 -15 -15 -8 0 -15 7 -15 15 0 8 7 15 15 15 8 0 15 -7 15 -15z
m-2577 -2 c-7 -2 -19 -2 -25 0 -7 3 -2 5 12 5 14 0 19 -2 13 -5z m640 0 c-7
-2 -19 -2 -25 0 -7 3 -2 5 12 5 14 0 19 -2 13 -5z m-2988 -58 c50 -25 105 -80
130 -130 30 -62 32 -160 5 -223 -42 -98 -152 -172 -255 -172 -61 0 -135 30
-182 73 -151 138 -115 372 71 459 54 25 173 21 231 -7z m1562 -1 c-3 -3 -12
-4 -19 -1 -8 3 -5 6 6 6 11 1 17 -2 13 -5z m420 0 c-3 -3 -12 -4 -19 -1 -8 3
-5 6 6 6 11 1 17 -2 13 -5z m576 -21 c-13 -2 -35 -2 -50 0 -16 2 -5 4 22 4 28
0 40 -2 28 -4z m235 0 c-27 -2 -69 -2 -95 0 -27 2 -5 3 47 3 52 0 74 -1 48 -3z
m-931 -9 c-3 -3 -12 -4 -19 -1 -8 3 -5 6 6 6 11 1 17 -2 13 -5z m520 0 c-3 -3
-12 -4 -19 -1 -8 3 -5 6 6 6 11 1 17 -2 13 -5z m566 -1 c-7 -2 -19 -2 -25 0
-7 3 -2 5 12 5 14 0 19 -2 13 -5z m-1126 -9 c-3 -3 -12 -4 -19 -1 -8 3 -5 6 6
6 11 1 17 -2 13 -5z m476 -1 c-7 -2 -19 -2 -25 0 -7 3 -2 5 12 5 14 0 19 -2
13 -5z m190 0 c-7 -2 -19 -2 -25 0 -7 3 -2 5 12 5 14 0 19 -2 13 -5z m352 -3
c-15 -7 -10 -9 23 -9 55 -1 313 -45 415 -72 137 -34 261 -79 367 -132 74 -37
30 -28 -114 23 -115 41 -298 80 -516 111 -140 21 -626 17 -795 -5 -190 -26
-316 -51 -438 -91 -141 -45 -209 -56 -117 -19 177 71 269 99 435 133 145 30
307 51 399 52 66 2 74 3 41 9 -23 4 35 7 140 8 109 0 172 -3 160 -8z m198 3
c-13 -2 -33 -2 -45 0 -13 2 -3 4 22 4 25 0 35 -2 23 -4z m-1613 -7 c0 -2 -7
-7 -16 -10 -8 -3 -12 -2 -9 4 6 10 25 14 25 6z m797 -2 c-3 -3 -12 -4 -19 -1
-8 3 -5 6 6 6 11 1 17 -2 13 -5z m886 -1 c-7 -2 -21 -2 -30 0 -10 3 -4 5 12 5
17 0 24 -2 18 -5z m-950 -10 c-7 -2 -19 -2 -25 0 -7 3 -2 5 12 5 14 0 19 -2
13 -5z m1024 1 c-3 -3 -12 -4 -19 -1 -8 3 -5 6 6 6 11 1 17 -2 13 -5z m60 -10
c-3 -3 -12 -4 -19 -1 -8 3 -5 6 6 6 11 1 17 -2 13 -5z m-2767 -25 c9 -15 8
-24 -1 -35 -18 -22 -53 -13 -57 15 -6 40 39 56 58 20z m865 11 c-3 -5 -12 -10
-18 -10 -7 0 -6 4 3 10 19 12 23 12 15 0z m1942 4 c-3 -3 -12 -4 -19 -1 -8 3
-5 6 6 6 11 1 17 -2 13 -5z m-1268 -8 c-7 -7 -142 -37 -146 -32 -3 2 24 11 59
19 66 16 94 20 87 13z m-694 -15 c15 -6 20 -18 21 -50 0 -51 -12 -53 -27 -3
-7 26 -17 38 -30 39 -21 2 -26 -13 -6 -20 6 -2 0 -3 -14 -1 -14 1 -35 -4 -47
-12 -11 -8 -23 -10 -26 -5 -3 5 18 20 47 34 59 29 55 28 82 18z m265 -11 c-8
-5 -19 -10 -25 -10 -5 0 -3 5 5 10 8 5 20 10 25 10 6 0 3 -5 -5 -10z m1837 4
c-3 -3 -12 -4 -19 -1 -8 3 -5 6 6 6 11 1 17 -2 13 -5z m-1570 -20 c-3 -3 -12
-4 -19 -1 -8 3 -5 6 6 6 11 1 17 -2 13 -5z m-597 -34 c0 -11 -7 -20 -16 -20
-8 0 -12 5 -9 10 3 6 0 10 -7 10 -9 0 -9 3 2 10 23 15 30 12 30 -10z m110 -1
c0 -5 -4 -9 -10 -9 -5 0 -10 7 -10 16 0 8 5 12 10 9 6 -3 10 -10 10 -16z
m-176 -4 c11 -8 15 -15 9 -15 -7 0 -15 5 -18 10 -3 6 -11 10 -16 10 -6 0 -7
-4 -4 -10 3 -5 -2 -10 -12 -10 -10 0 -27 -6 -38 -14 -24 -16 -102 -50 -91 -39
8 9 139 82 146 82 3 0 14 -6 24 -14z m109 -5 c-3 -12 0 -20 6 -20 7 0 9 -4 6
-10 -8 -14 -1 -13 42 5 73 31 44 13 -92 -56 -77 -39 -156 -80 -175 -91 -41
-25 -31 -14 23 26 23 16 35 32 30 39 -5 8 -2 8 9 0 21 -18 79 10 72 35 -5 13
-4 14 4 3 8 -10 14 -11 32 -1 l23 13 -24 14 c-23 14 -20 14 31 -2 25 -8 25 -7
6 13 -10 12 -16 28 -13 37 9 22 26 18 20 -5z m2427 -30 c8 -5 11 -10 5 -10 -5
0 -17 5 -25 10 -8 5 -10 10 -5 10 6 0 17 -5 25 -10z m-2190 -30 c-8 -5 -19
-10 -25 -10 -5 0 -3 5 5 10 8 5 20 10 25 10 6 0 3 -5 -5 -10z m-544 -25 c-11
-8 -24 -15 -29 -15 -4 0 -5 -5 -1 -12 4 -7 3 -8 -4 -4 -7 4 -12 2 -12 -5 0 -7
-3 -9 -6 -6 -4 3 -15 2 -25 -4 -11 -5 -19 -8 -19 -5 0 5 102 66 110 65 3 0 -4
-6 -14 -14z m503 11 c-9 -8 -99 -44 -99 -40 0 6 81 43 94 44 5 0 7 -2 5 -4z
m2865 -35 c-2 -3 -12 3 -22 13 -16 17 -16 18 5 5 12 -7 20 -15 17 -18z m-2989
-21 c-3 -5 -12 -10 -18 -10 -7 0 -6 4 3 10 19 12 23 12 15 0z m1635 -16 c470
-58 917 -238 1303 -527 77 -57 183 -152 287 -256 172 -172 337 -375 322 -395
-5 -6 -86 -119 -180 -251 -94 -132 -208 -292 -254 -355 l-84 -115 -55 0 -54 0
-3 232 -2 233 -148 -3 -147 -2 -1 100 c-1 55 -2 149 -3 209 l-1 108 -152 -2
c-84 -2 -228 -5 -320 -7 l-168 -5 0 -504 0 -504 -67 0 c-110 0 -113 -2 -113
-71 0 -33 -4 -59 -9 -59 -14 0 -21 139 -21 407 l0 253 -70 0 -70 0 0 180 0
180 -170 0 -169 0 6 -153 c3 -85 3 -166 -1 -180 l-6 -27 -105 0 -105 0 0 -324
0 -323 -61 -7 c-34 -3 -79 -6 -100 -6 l-39 0 0 525 0 525 -130 0 -130 0 0
-605 0 -605 -40 0 c-65 0 -70 20 -70 265 l0 205 -158 0 -159 0 -24 34 c-52 72
-330 379 -337 371 -3 -3 2 -13 10 -22 23 -28 240 -304 271 -345 l28 -38 -40 0
-41 0 0 -177 c0 -168 -1 -176 -17 -160 -14 14 -15 21 -6 37 10 15 10 22 -3 35
-20 20 -30 20 -14 0 9 -11 10 -19 3 -26 -12 -12 -97 86 -87 103 4 6 3 8 -3 5
-5 -3 -25 10 -44 29 -33 34 -33 36 -15 50 11 8 15 14 10 14 -6 0 -15 -5 -20
-10 -8 -8 -45 27 -121 112 -130 145 -375 393 -560 566 l-131 124 72 96 c179
239 399 449 641 614 218 149 418 247 682 334 384 127 789 167 1193 118z
m-1063 10 c-3 -3 -12 -4 -19 -1 -8 3 -5 6 6 6 11 1 17 -2 13 -5z m-677 -49
c-7 -8 -18 -15 -24 -15 -6 0 -2 7 8 15 25 19 32 19 16 0z m-244 -24 c-17 -11
-33 -18 -38 -15 -13 8 1 24 16 18 8 -3 17 -1 21 5 3 6 12 11 18 11 7 0 -1 -9
-17 -19z m184 -6 c-7 -8 -18 -15 -24 -15 -6 0 -2 7 8 15 25 19 32 19 16 0z
m177 -17 c-3 -7 -5 -2 -5 12 0 14 2 19 5 13 2 -7 2 -19 0 -25z m2748 14 c-3
-3 -11 0 -18 7 -9 10 -8 11 6 5 10 -3 15 -9 12 -12z m1330 -1 c103 -48 142
-147 96 -246 -22 -48 -44 -69 -94 -90 -124 -52 -257 36 -257 170 0 135 134
222 255 166z m-1120 -9 c-3 -3 -11 0 -18 7 -9 10 -8 11 6 5 10 -3 15 -9 12
-12z m-3391 -24 c-44 -33 -53 -36 -19 -6 16 15 34 28 39 28 5 0 -4 -10 -20
-22z m216 17 c0 -2 -13 -11 -30 -20 -38 -19 -40 -11 -2 9 31 17 32 18 32 11z
m3260 -52 c0 -7 -58 36 -66 49 -4 7 9 -1 29 -16 20 -16 37 -30 37 -33z m-3699
34 c-6 -8 -7 -18 -3 -22 4 -5 1 -5 -6 -1 -10 6 -10 11 -1 22 6 8 14 14 16 14
3 0 0 -6 -6 -13z m859 -1 c0 -2 -7 -7 -16 -10 -8 -3 -12 -2 -9 4 6 10 25 14
25 6z m3021 -13 c13 -16 12 -17 -3 -4 -10 7 -18 15 -18 17 0 8 8 3 21 -13z
m-3917 -16 c-2 -7 -22 -24 -44 -37 -22 -14 -40 -28 -40 -32 0 -3 -16 -16 -36
-28 -19 -13 -40 -33 -45 -46 -4 -13 -12 -23 -16 -22 -5 2 -18 -4 -30 -13 l-23
-16 25 -23 c18 -17 23 -30 19 -49 -4 -18 -3 -22 4 -12 7 10 11 10 17 1 5 -8
11 -5 22 9 8 12 11 26 7 33 -4 7 -3 8 4 4 7 -4 12 0 12 10 0 10 3 14 7 11 3
-4 13 -1 22 5 9 7 5 -1 -9 -17 l-25 -29 31 22 c40 28 61 52 44 52 -7 0 -2 9
11 19 16 13 27 16 34 10 7 -7 -7 -24 -40 -51 -27 -23 -126 -118 -220 -212 -93
-94 -174 -170 -178 -168 -5 1 -5 -2 -2 -8 9 -14 -24 -52 -38 -43 -5 3 -7 2 -4
-4 9 -15 -42 -85 -56 -77 -7 4 -9 4 -5 -1 9 -9 -48 -94 -68 -102 -8 -3 -11
-10 -7 -16 4 -6 1 -7 -7 -2 -11 7 -10 10 1 19 8 6 27 27 42 47 l28 37 -26 20
c-14 11 -25 26 -25 33 0 12 -2 12 -9 1 -6 -10 -10 -8 -14 8 -4 15 -10 19 -18
14 -7 -4 -3 7 10 24 12 18 27 29 33 26 6 -4 8 -2 5 4 -9 13 120 172 136 169 7
-1 11 3 10 10 -3 15 176 197 277 281 41 35 82 68 90 75 33 28 95 77 97 77 1 0
0 -6 -3 -13z m412 1 c4 -6 3 -8 -4 -4 -6 3 -13 2 -17 -4 -3 -5 -11 -10 -18
-10 -6 0 -2 7 9 15 23 18 21 17 30 3z m4862 -22 c52 -55 14 -146 -61 -146 -50
0 -87 38 -87 88 0 79 95 116 148 58z m-5078 11 c0 -2 -21 -19 -47 -37 -27 -18
-60 -45 -75 -58 -16 -14 -28 -22 -28 -18 0 5 -9 -2 -19 -15 -12 -15 -19 -18
-18 -9 4 26 18 41 35 38 12 -2 16 3 14 17 -2 12 0 16 5 9 6 -8 25 2 63 31 49
39 70 51 70 42z m609 -1 c-2 -2 -15 -9 -29 -15 -24 -11 -24 -11 -6 3 16 13 49
24 35 12z m2821 -33 c0 -7 -39 17 -46 28 -3 6 5 3 20 -6 14 -10 26 -19 26 -22z
m160 11 c0 -2 -9 0 -20 6 -11 6 -20 13 -20 16 0 2 9 0 20 -6 11 -6 20 -13 20
-16z m-3433 2 c0 -8 -6 -12 -13 -9 -6 2 -15 0 -19 -6 -3 -6 -12 -11 -18 -11
-8 0 40 39 49 40 0 0 1 -6 1 -14z m3638 -6 c10 -11 16 -20 13 -20 -3 0 -13 9
-23 20 -10 11 -16 20 -13 20 3 0 13 -9 23 -20z m-3975 0 c0 -5 -7 -7 -15 -4
-8 4 -15 8 -15 10 0 2 7 4 15 4 8 0 15 -4 15 -10z m709 -14 c-10 -9 -69 -36
-69 -32 0 7 52 35 64 36 5 0 7 -2 5 -4z m3137 -31 c20 -14 33 -25 27 -25 -5 0
-24 11 -43 25 -19 14 -31 25 -27 25 3 0 23 -11 43 -25z m-3584 8 c-6 -2 -9
-10 -6 -15 4 -7 2 -8 -5 -4 -13 9 -5 26 12 25 9 0 8 -2 -1 -6z m-257 -13 c3
-5 1 -10 -4 -10 -6 0 -11 5 -11 10 0 6 2 10 4 10 3 0 8 -4 11 -10z m205 -22
c-14 -11 -24 -25 -22 -30 1 -5 -3 -6 -9 -2 -8 4 -9 3 -5 -5 4 -6 26 -23 47
-37 22 -14 53 -39 69 -57 26 -29 30 -30 52 -18 14 7 38 24 54 37 16 14 43 32
61 41 27 12 31 18 22 29 -6 8 -9 14 -6 14 2 0 10 -6 16 -14 9 -10 -1 -21 -46
-51 -32 -21 -89 -60 -126 -88 l-68 -50 -27 24 c-15 13 -48 46 -74 72 -51 53
-79 58 -71 13 3 -14 8 -24 12 -23 3 1 22 -13 41 -32 40 -37 85 -72 92 -68 2 1
-9 -10 -26 -25 -16 -15 -33 -25 -38 -22 -5 3 -7 1 -6 -3 2 -5 -33 -42 -77 -82
-142 -130 -305 -313 -394 -443 l-32 -48 -27 25 c-15 14 -55 49 -89 78 -36 30
-58 56 -54 62 78 105 194 238 305 352 111 114 142 141 153 132 11 -9 12 -9 8
3 -6 15 94 102 230 201 55 40 75 49 35 15z m420 18 c0 -2 -7 -7 -16 -10 -8 -3
-12 -2 -9 4 6 10 25 14 25 6z m2710 -22 c0 -2 -9 0 -20 6 -11 6 -20 13 -20 16
0 2 9 0 20 -6 11 -6 20 -13 20 -16z m721 9 c13 -16 12 -17 -3 -4 -10 7 -18 15
-18 17 0 8 8 3 21 -13z m-686 -13 c-3 -5 -12 -10 -18 -10 -7 0 -6 4 3 10 19
12 23 12 15 0z m427 -55 c20 -13 39 -29 43 -35 8 -13 -70 41 -110 75 l-30 27
30 -21 c17 -12 46 -33 67 -46z m158 -5 c14 -13 5 -8 -19 11 -25 20 -47 42 -50
50 -2 8 7 3 20 -11 13 -14 35 -36 49 -50z m-456 -28 c16 -13 35 -21 43 -18 8
3 11 2 8 -4 -9 -15 30 -31 44 -17 10 9 12 9 9 -3 -2 -9 3 -14 11 -12 12 3 12
0 2 -12 -11 -14 -20 -10 -73 27 -34 23 -80 53 -104 67 -23 14 -46 29 -51 34
-14 15 80 -37 111 -62z m-3714 8 c0 -5 -4 -10 -10 -10 -5 0 -10 5 -10 10 0 6
5 10 10 10 6 0 10 -4 10 -10z m3755 0 c-3 -5 -12 -10 -18 -10 -7 0 -6 4 3 10
19 12 23 12 15 0z m254 -13 c0 -9 -2 -8 -6 1 -2 6 -10 9 -15 6 -7 -4 -8 -2 -4
5 9 13 26 5 25 -12z m236 -27 c21 -22 37 -40 34 -40 -3 0 -23 18 -44 40 -21
22 -37 40 -34 40 3 0 23 -18 44 -40z m175 5 c19 -19 32 -35 29 -35 -3 0 -20
16 -39 35 -19 19 -32 35 -29 35 3 0 20 -16 39 -35z m-5534 -8 c69 -60 -4 -165
-85 -123 -48 25 -56 82 -16 121 30 31 66 32 101 2z m1639 13 c3 -5 -1 -10 -10
-10 -9 0 -13 5 -10 10 3 6 8 10 10 10 2 0 7 -4 10 -10z m-485 -21 c0 -5 -4 -9
-8 -9 -5 0 -9 7 -9 15 0 8 4 12 9 9 4 -3 8 -9 8 -15z m4092 -16 c10 -9 18 -21
18 -27 0 -6 -7 0 -16 12 -9 14 -22 21 -31 18 -8 -3 -11 -1 -8 4 9 14 16 13 37
-7z m278 -128 c63 -63 112 -115 110 -115 -3 0 -57 52 -120 115 -63 63 -112
115 -110 115 3 0 57 -52 120 -115z m-6065 -262 c6 -328 5 -363 -9 -363 -14 0
-16 28 -16 243 0 213 9 492 15 485 1 -2 6 -166 10 -365z m5563 324 c8 3 10 -1
6 -11 -5 -13 -13 -11 -45 15 -47 37 -52 50 -6 16 17 -14 38 -22 45 -20z m72
23 c0 -5 -2 -10 -4 -10 -3 0 -8 5 -11 10 -3 6 -1 10 4 10 6 0 11 -4 11 -10z
m226 -35 c1 -8 -2 -15 -8 -15 -6 0 -8 6 -5 14 3 7 1 19 -4 25 -6 8 -5 8 3 1 6
-5 13 -17 14 -25z m-257 -24 c11 -11 30 -18 45 -17 15 2 23 -1 19 -7 -4 -7 0
-8 12 -3 16 6 16 4 4 -10 -8 -10 -15 -12 -17 -5 -2 6 -9 11 -15 11 -17 -1 32
-40 49 -40 16 0 19 16 4 23 -6 3 -5 4 2 3 7 -2 13 -10 13 -20 0 -9 11 -26 25
-38 16 -13 19 -18 8 -14 -25 7 -23 5 18 -35 l37 -34 -19 30 c-17 27 -17 28 -1
16 22 -17 22 -3 0 21 -9 10 -11 18 -5 18 15 0 31 -31 29 -55 -1 -11 3 -19 10
-18 7 2 10 -7 7 -25 -4 -25 -3 -26 11 -8 8 10 12 23 9 27 -3 5 2 6 10 3 9 -3
16 -10 16 -15 0 -5 5 -9 10 -9 6 0 10 6 9 13 -5 40 1 47 41 47 22 0 40 5 40
11 0 5 5 7 11 3 6 -3 7 -9 3 -13 -12 -8 -16 -32 -5 -28 5 1 20 -11 35 -26 15
-16 31 -25 38 -21 7 4 8 3 4 -4 -4 -7 14 -33 43 -62 32 -32 52 -46 57 -38 5 7
3 8 -6 3 -9 -5 -11 -4 -6 4 4 6 12 9 17 5 5 -3 7 -9 4 -14 -13 -20 8 -42 37
-38 32 5 51 -11 42 -36 -6 -15 -8 -15 -20 1 -7 10 -13 14 -13 8 0 -13 24 -45
33 -45 4 0 5 4 2 8 -2 4 -1 14 3 20 13 21 100 -105 96 -138 -2 -18 2 -27 11
-27 10 0 11 4 2 14 -6 7 -8 16 -5 19 4 5 35 -38 91 -129 9 -15 14 -33 10 -39
-5 -7 -3 -8 6 -3 10 6 12 4 7 -9 -4 -10 -3 -15 3 -11 5 3 14 -4 20 -15 9 -16
8 -25 -2 -38 -12 -16 -11 -16 6 -2 18 14 19 13 13 -3 -4 -10 -3 -16 3 -12 12
8 73 -113 66 -132 -3 -8 -2 -12 3 -9 19 12 181 -410 166 -435 -4 -5 -2 -9 3
-9 5 0 12 -11 14 -24 4 -18 -2 -28 -24 -40 -15 -10 -33 -14 -40 -10 -6 4 -8 3
-5 -3 8 -13 -20 -26 -35 -16 -6 3 -8 2 -5 -4 3 -5 -24 -26 -61 -46 -37 -20
-134 -76 -217 -126 l-150 -89 -6 27 c-4 14 -7 49 -8 76 l-2 50 -19 -49 c-11
-27 -25 -54 -31 -60 -9 -8 -10 -8 -5 1 3 6 1 15 -5 19 -8 4 -9 3 -5 -4 4 -7 2
-12 -4 -12 -6 0 -8 -4 -5 -10 3 -5 2 -17 -3 -27 -7 -12 -13 2 -22 56 -14 76
-20 85 -63 95 -24 6 -30 3 -34 -14 -7 -27 -21 -26 -25 2 -4 27 -32 35 -125 37
l-62 1 -3 78 -3 77 -82 5 -82 5 175 264 c96 145 199 304 228 354 l54 89 28
-43 c83 -132 82 -131 122 -103 l23 16 -36 64 c-20 35 -34 68 -31 72 2 4 0 14
-6 22 -8 12 -8 11 -3 -5 8 -24 17 -36 -111 135 -108 144 -354 406 -442 472
-24 18 -48 41 -53 51 -13 22 -4 22 20 -2z m651 -46 c30 -30 52 -55 49 -55 -2
0 -29 25 -59 55 -30 30 -52 55 -49 55 2 0 29 -25 59 -55z m-235 -67 l110 -113
-106 104 c-60 58 -112 101 -118 97 -7 -5 -9 -1 -5 8 3 9 7 16 8 16 1 0 51 -51
111 -112z m-205 56 c0 -59 -24 -55 -28 4 -2 33 0 42 12 42 12 0 16 -11 16 -46z
m95 7 c-3 -5 -1 -12 5 -16 6 -4 8 -11 4 -16 -9 -14 -23 -1 -19 19 5 23 4 22
11 22 3 0 3 -4 -1 -9z m1030 -58 c103 -142 290 -488 365 -677 73 -185 172
-527 157 -542 -2 -3 -8 12 -12 33 -12 66 -73 257 -121 379 -94 244 -270 576
-400 761 -54 76 -61 93 -40 93 9 0 31 -21 51 -47z m-599 -35 l29 -33 -32 29
c-31 28 -38 36 -30 36 2 0 16 -15 33 -32z m-104 -53 c7 -1 12 -6 11 -13 -2 -7
2 -12 8 -12 5 0 8 -4 5 -9 -3 -5 0 -14 8 -20 8 -7 16 -8 18 -4 3 4 3 2 1 -6
-2 -8 2 -11 12 -7 10 3 13 2 10 -5 -8 -12 42 -92 53 -85 4 2 8 -4 8 -14 0 -11
-1 -18 -2 -17 -1 1 -40 51 -88 110 -47 59 -86 111 -86 114 0 4 6 -2 14 -13 8
-10 20 -19 28 -19z m-6059 -217 c4 -146 2 -238 -4 -238 -5 0 -9 98 -9 242 0
133 2 239 4 237 2 -2 6 -111 9 -241z m6218 205 c13 -16 12 -17 -3 -4 -10 7
-18 15 -18 17 0 8 8 3 21 -13z m-5571 -23 c0 -4 -9 -19 -21 -34 -17 -21 -24
-24 -35 -15 -19 15 -18 22 7 53 17 21 24 24 35 15 8 -6 14 -15 14 -19z m5362
-63 c23 -28 36 -46 27 -40 -9 7 -19 9 -23 5 -4 -4 -6 -2 -4 3 1 6 -5 21 -14
33 -15 22 -17 23 -27 5 -9 -16 -10 -15 -7 7 2 14 -2 31 -8 39 -30 40 17 -5 56
-52z m284 -14 c15 -20 23 -33 16 -29 -13 8 -56 66 -49 66 3 0 17 -17 33 -37z
m-5272 -5 c-3 -4 2 -11 10 -14 9 -3 16 -12 16 -20 0 -21 -17 -17 -23 5 -3 13
-12 18 -23 16 -11 -2 -21 -4 -24 -4 -3 -1 0 -5 7 -9 8 -5 8 -12 -3 -26 -10
-14 -14 -16 -14 -5 0 8 -9 1 -20 -16 -11 -16 -20 -25 -20 -20 1 19 68 102 83
102 9 0 14 -4 11 -9z m-458 -67 c-10 -16 -36 -13 -43 5 -8 22 18 37 36 20 7
-8 10 -19 7 -25z m5802 -28 c43 -65 62 -98 38 -69 -14 18 -21 15 -17 -7 1 -5
-3 -6 -9 -2 -7 5 -8 11 -1 19 11 13 -18 67 -35 68 -5 0 -8 5 -6 10 1 6 -3 16
-9 24 -6 8 -9 14 -6 14 4 0 24 -26 45 -57z m-129 -29 c10 -22 14 -24 27 -13 8
7 14 8 13 3 -4 -22 2 -55 9 -50 4 2 8 -4 8 -15 0 -10 -1 -19 -3 -19 -1 0 -21
27 -43 60 -22 33 -37 60 -32 60 5 0 14 -12 21 -26z m-5335 -19 c-9 -14 -18
-25 -21 -25 -5 0 5 18 20 38 17 22 18 13 1 -13z m119 10 c-3 -9 -8 -14 -10
-11 -3 3 -2 9 2 15 9 16 15 13 8 -4z m-5 -67 c-13 -18 -26 -34 -30 -36 -5 -2
-8 -8 -8 -12 0 -14 -42 -81 -47 -76 -3 3 2 15 11 28 21 30 20 38 -4 33 -22 -4
-25 2 -10 25 8 13 10 12 10 -2 0 -28 22 -17 58 30 39 49 53 56 20 10z m147 12
c3 -11 4 -24 1 -28 -3 -5 1 -9 8 -9 9 0 12 7 8 16 -3 9 26 -13 65 -49 64 -59
84 -89 55 -83 -6 2 -9 -3 -6 -11 6 -17 -12 -31 -21 -16 -8 13 -25 3 -25 -13 0
-8 3 -8 9 2 6 9 11 10 15 2 4 -6 -1 -22 -10 -37 -14 -20 -15 -30 -6 -44 9 -14
8 -20 -1 -23 -7 -2 -1 -2 11 0 13 2 21 0 19 -4 -3 -5 5 -10 18 -11 26 -2 37
10 39 42 1 11 7 20 13 19 6 -1 14 4 17 13 3 8 1 12 -4 9 -6 -3 -7 1 -4 9 9 25
24 19 24 -9 0 -14 5 -25 11 -25 5 0 7 6 3 13 -4 6 7 -1 24 -17 19 -17 28 -35
25 -45 -3 -11 -2 -12 4 -4 7 9 21 0 54 -34 24 -26 37 -42 28 -35 -12 9 -16 9
-16 -3 0 -8 4 -12 9 -9 24 15 635 -667 620 -691 -4 -5 -7 -13 -7 -17 0 -3 -3
-9 -7 -12 -5 -3 -6 -3 -4 0 2 3 -7 17 -20 31 -25 27 -31 43 -16 43 5 0 14 -12
20 -26 7 -14 17 -22 23 -19 7 5 5 11 -4 18 -8 7 -21 23 -30 37 l-17 24 -6 -32
c-7 -33 -19 -42 -27 -19 -2 6 -8 9 -12 5 -4 -4 -2 -14 5 -23 7 -8 8 -15 4 -15
-13 0 -36 39 -29 50 3 6 -1 7 -9 4 -9 -3 -16 -2 -16 3 0 5 -8 18 -18 29 -35
37 -57 78 -53 98 2 17 1 18 -13 7 -13 -11 -22 -8 -56 19 -43 34 -47 49 -8 30
22 -11 22 -11 -2 9 -14 11 -29 16 -33 12 -5 -5 -34 8 -65 28 -32 21 -66 42
-76 48 -16 9 -12 11 23 11 24 1 46 3 49 6 3 3 -17 6 -44 6 -61 0 -71 7 -70 45
1 30 0 30 -49 29 -27 -1 -43 0 -34 3 19 5 14 43 -8 56 -7 4 -13 15 -13 22 0 9
-10 15 -25 15 -20 0 -25 5 -25 24 0 17 -7 26 -25 30 -14 4 -25 11 -25 16 0 6
-7 10 -15 10 -8 0 -15 7 -15 15 0 8 -9 15 -21 15 -29 0 -59 18 -59 35 0 11
-12 15 -40 15 -36 0 -40 3 -40 24 0 17 -7 26 -25 30 -14 4 -25 11 -25 16 0 6
-13 10 -30 10 -18 0 -30 5 -30 13 0 26 -25 67 -41 67 -9 0 -24 12 -34 26 -10
15 -12 23 -4 19 9 -6 11 -3 6 8 -3 9 -3 16 1 16 19 -3 23 2 13 15 -8 10 -9 16
-1 21 5 3 10 12 10 18 0 7 -5 4 -11 -5 -5 -10 -8 -19 -7 -21 2 -1 -7 -13 -19
-26 -20 -21 -20 -26 -7 -46 12 -18 12 -22 0 -22 -8 0 -12 6 -9 14 12 31 -18 9
-37 -27 -11 -22 -23 -40 -25 -40 -7 0 14 40 57 110 78 127 120 190 128 190 5
0 11 -9 15 -20z m-295 -10 c-6 -11 -13 -20 -16 -20 -2 0 0 9 6 20 6 11 13 20
16 20 2 0 0 -9 -6 -20z m5585 -32 c16 -24 22 -38 14 -31 -15 12 -53 73 -46 73
2 0 17 -19 32 -42z m-121 -28 c3 0 3 8 0 18 -5 13 -4 14 4 3 5 -7 7 -22 4 -34
-3 -14 -1 -18 6 -13 7 4 12 1 12 -8 0 -8 5 -27 12 -41 8 -19 14 -22 20 -13 6
9 7 6 3 -8 -4 -16 1 -28 20 -43 15 -11 24 -25 20 -30 -3 -6 -1 -20 5 -31 6
-11 8 -20 6 -20 -3 0 -12 14 -21 30 -9 17 -12 30 -9 30 4 0 -1 9 -10 19 -30
33 -104 165 -98 175 3 5 9 0 13 -12 5 -12 11 -22 13 -22z m-1454 -491 c0 -446
-2 -509 -15 -509 -13 0 -15 57 -15 454 0 450 5 580 21 570 5 -3 9 -234 9 -515z
m-4044 479 c4 -7 3 -8 -4 -4 -15 9 -15 1 -2 -25 6 -11 7 -19 3 -18 -20 3 -24
-2 -13 -16 19 -23 6 -18 -16 6 -12 13 -14 19 -5 17 7 -2 16 3 19 11 3 9 0 11
-8 6 -9 -6 -9 -3 -1 14 13 24 17 25 27 9z m5669 -43 c13 -21 14 -26 3 -18 -8
7 -17 11 -19 9 -2 -2 -5 7 -5 20 -1 14 -1 24 0 22 1 -2 10 -16 21 -33z m-5719
-41 c-4 -9 -9 -15 -11 -12 -3 3 -3 13 1 22 4 9 9 15 11 12 3 -3 3 -13 -1 -22z
m144 10 c0 -8 -19 -13 -24 -6 -3 5 1 9 9 9 8 0 15 -2 15 -3z m5604 -20 c3 -8
2 -12 -4 -9 -6 3 -10 10 -10 16 0 14 7 11 14 -7z m34 -69 c-3 -3 -9 2 -12 12
-6 14 -5 15 5 6 7 -7 10 -15 7 -18z m-5808 -18 c0 -23 -2 -22 -19 10 -10 19
-9 22 4 17 8 -4 15 -15 15 -27z m2985 24 c3 -5 1 -12 -5 -16 -5 -3 -10 1 -10
9 0 18 6 21 15 7z m-2877 -26 c-6 -14 -15 -25 -20 -25 -5 0 -1 11 8 25 9 14
18 25 20 25 2 0 -2 -11 -8 -25z m3019 -172 c-2 -38 -3 -7 -3 67 0 74 1 105 3
68 2 -38 2 -98 0 -135z m3568 181 c37 -37 -16 -99 -60 -70 -24 16 -31 51 -15
72 16 19 55 18 75 -2z m-882 -19 c-3 -9 -8 -14 -10 -11 -3 3 -2 9 2 15 9 16
15 13 8 -4z m-5240 -10 c-3 -9 -8 -14 -10 -11 -3 3 -2 9 2 15 9 16 15 13 8 -4z
m-1392 -10 c67 -35 90 -131 46 -196 -62 -92 -208 -66 -237 42 -15 53 1 99 46
139 40 35 95 40 145 15z m6672 -37 c4 -10 5 -18 2 -18 -4 0 -35 60 -35 69 0 8
26 -32 33 -51z m-5660 27 c-3 -9 -8 -14 -10 -11 -3 3 -2 9 2 15 9 16 15 13 8
-4z m-245 -15 c-7 -10 -14 -17 -17 -15 -4 4 18 35 25 35 2 0 -1 -9 -8 -20z
m130 0 c-7 -10 -14 -17 -17 -15 -4 4 18 35 25 35 2 0 -1 -9 -8 -20z m5649 8
c15 -18 12 -45 -4 -45 -9 0 -10 4 -3 11 14 14 13 29 -2 20 -7 -5 -8 -3 -3 6 6
10 4 12 -9 7 -10 -4 -15 -3 -11 3 8 14 21 13 32 -2z m-6142 -18 c8 -13 -31
-100 -45 -100 -21 0 -21 29 0 69 20 41 33 50 45 31z m6289 -46 c3 -8 2 -12 -4
-9 -6 3 -10 10 -10 16 0 14 7 11 14 -7z m-5843 -41 c-11 -21 -20 -35 -21 -31
0 12 33 78 38 74 2 -2 -6 -21 -17 -43z m5727 0 l0 -37 -14 33 c-8 18 -11 37
-8 42 11 18 22 -1 22 -38z m176 -96 c30 -78 30 -78 12 -71 -8 3 -12 15 -10 27
2 12 2 16 -2 9 -3 -6 -10 -9 -16 -6 -7 4 -6 9 1 14 9 5 6 22 -9 61 -12 30 -17
50 -12 44 5 -5 21 -40 36 -78z m-144 8 c0 -5 -5 -3 -10 5 -5 8 -10 20 -10 25
0 6 5 3 10 -5 5 -8 10 -19 10 -25z m31 9 c2 3 4 -6 4 -19 0 -15 -5 -21 -15
-20 -8 2 -17 4 -20 4 -3 1 1 5 9 10 10 7 11 13 1 32 -10 21 -10 22 3 7 8 -10
16 -16 18 -14z m-5830 -11 c-12 -20 -14 -14 -5 12 4 9 9 14 11 11 3 -2 0 -13
-6 -23z m-481 -34 c0 -5 -12 -50 -27 -100 -18 -59 -31 -89 -41 -89 -12 0 -13
9 -9 44 9 63 46 156 63 156 8 0 14 -5 14 -11z m461 -16 c-12 -20 -14 -14 -5
12 4 9 9 14 11 11 3 -2 0 -13 -6 -23z m5864 -34 c-6 -17 -9 -19 -16 -8 -12 19
-11 32 1 24 6 -3 10 -1 10 6 0 7 3 10 6 6 3 -3 3 -15 -1 -28z m-5884 -16 c-12
-20 -14 -14 -5 12 4 9 9 14 11 11 3 -2 0 -13 -6 -23z m6023 -9 c3 -8 2 -12 -4
-9 -6 3 -10 10 -10 16 0 14 7 11 14 -7z m-113 -27 c-5 -5 -8 -24 -5 -41 4 -27
3 -26 -10 9 -19 48 -14 74 10 55 10 -9 11 -17 5 -23z m66 -18 c-4 -22 -4 -21
-6 4 -1 19 -5 26 -13 21 -7 -5 -8 -3 -3 5 11 19 27 -3 22 -30z m-50 -21 c-3
-7 -5 -2 -5 12 0 14 2 19 5 13 2 -7 2 -19 0 -25z m113 -22 c-7 -7 -10 1 -9 25
0 32 1 33 10 10 6 -16 6 -28 -1 -35z m-5135 34 c-3 -5 -10 -10 -16 -10 -5 0
-9 5 -9 10 0 6 7 10 16 10 8 0 12 -4 9 -10z m5086 -33 c-10 -9 -11 -8 -5 6 3
10 9 15 12 12 3 -3 0 -11 -7 -18z m-6030 -14 c-12 -20 -14 -14 -5 12 4 9 9 14
11 11 3 -2 0 -13 -6 -23z m949 7 c0 -5 -7 -7 -15 -4 -8 4 -15 8 -15 10 0 2 7
4 15 4 8 0 15 -4 15 -10z m5031 -14 c5 3 9 -5 9 -18 0 -15 3 -19 8 -11 7 12 9
-34 3 -97 -2 -23 -3 -24 -11 -5 -5 11 -9 27 -9 35 -1 13 0 13 9 0 8 -12 10
-10 10 9 0 16 -4 21 -14 18 -10 -4 -12 0 -8 15 4 15 2 19 -7 13 -10 -5 -11 -2
-6 14 4 13 2 21 -5 21 -6 0 -8 5 -4 12 6 9 9 9 12 0 2 -7 8 -10 13 -6z m123
-21 c5 -22 4 -26 -4 -15 -5 8 -10 24 -10 34 0 26 6 18 14 -19z m25 -80 c0 -5
-4 -3 -9 5 -5 8 -9 22 -9 30 0 16 17 -16 18 -35z m456 29 c12 -12 13 -19 4
-30 -26 -31 -70 -7 -55 31 7 20 30 19 51 -1z m-454 -77 c-10 -9 -11 -8 -5 6 3
10 9 15 12 12 3 -3 0 -11 -7 -18z m871 -16 c83 -74 4 -210 -105 -180 -79 22
-105 122 -48 180 42 41 107 41 153 0z m-972 -21 c0 -22 -4 -40 -9 -40 -10 0
-23 58 -15 71 13 21 24 6 24 -31z m127 -32 c-3 -8 -6 -5 -6 6 -1 11 2 17 5 13
3 -3 4 -12 1 -19z m-3710 -267 c-14 -14 -27 -33 -31 -41 -3 -8 -4 -3 -2 13 3
22 1 25 -10 16 -12 -10 -14 6 -13 92 1 57 3 96 6 87 2 -10 9 -18 14 -18 5 0 9
-9 9 -19 0 -11 4 -22 10 -26 6 -4 6 -15 0 -31 -6 -14 -10 -35 -10 -46 0 -16 3
-18 13 -9 8 6 17 8 20 4 4 -3 7 12 7 35 0 23 -4 42 -10 42 -5 0 -10 17 -9 38
0 30 2 33 10 17 8 -18 9 -18 8 5 -1 14 0 48 2 75 2 28 5 -8 6 -79 4 -125 3
-130 -20 -155z m3613 249 c0 -5 -2 -10 -4 -10 -3 0 -8 5 -11 10 -3 6 -1 10 4
10 6 0 11 -4 11 -10z m-107 -77 c29 -141 38 -204 32 -224 -4 -12 -7 -36 -7
-54 0 -27 -3 -32 -22 -30 -14 2 -23 -3 -23 -11 0 -10 4 -11 11 -4 31 31 37
-25 6 -58 -11 -12 -20 -26 -20 -32 0 -5 -18 -10 -40 -10 -36 0 -40 -2 -40 -25
0 -22 -4 -25 -39 -25 -49 0 -71 8 -71 26 0 8 -4 14 -9 14 -14 0 -24 -73 -26
-180 -4 -212 -10 -169 -15 104 l-5 288 -133 -1 c-93 -2 -132 1 -127 9 3 6 10
8 15 5 4 -3 10 -1 12 3 8 22 443 266 458 257 6 -4 10 -3 9 2 -3 15 1 23 9 23
5 0 16 -35 25 -77z m86 47 c10 0 35 -110 27 -117 -3 -4 -6 1 -6 10 0 10 -4 17
-8 17 -9 0 -33 91 -31 113 1 7 3 4 6 -5 2 -10 8 -18 12 -18z m131 4 c0 -8 -4
-12 -10 -9 -5 3 -10 10 -10 16 0 5 5 9 10 9 6 0 10 -7 10 -16z m-5222 -26 c-5
-32 -28 -35 -28 -4 0 17 5 26 16 26 10 0 14 -7 12 -22z m5129 -30 c-3 -7 -5
-2 -5 12 0 14 2 19 5 13 2 -7 2 -19 0 -25z m111 -43 c0 -16 -2 -15 -8 5 -4 14
-8 36 -8 50 0 22 1 22 8 -5 4 -16 8 -39 8 -50z m-5233 -121 c0 -142 -1 -149
-20 -149 -19 0 -20 6 -18 138 2 147 5 171 26 164 9 -3 12 -42 12 -153z m556
109 c13 -16 12 -17 -3 -4 -10 7 -18 15 -18 17 0 8 8 3 21 -13z m2689 -38 c0
-31 -5 -45 -16 -49 -24 -9 -27 -3 -19 53 5 37 10 48 21 44 9 -3 14 -20 14 -48z
m-2779 19 c2 3 5 -7 6 -21 1 -24 0 -24 -18 6 -22 36 -25 55 -5 29 7 -10 15
-16 17 -14z m3829 -3 c0 -16 -124 -21 -509 -21 -363 0 -440 -5 -394 -25 10 -5
204 -10 431 -13 231 -2 412 -8 412 -13 0 -5 -62 -10 -137 -11 -76 -1 -154 -3
-173 -4 -19 -1 -136 -2 -260 -3 l-225 -1 -17 -73 c-24 -98 -36 -189 -44 -332
-7 -111 -6 -119 9 -106 15 12 17 10 18 -20 0 -28 2 -31 9 -14 l9 20 1 -20 c1
-19 2 -19 9 -1 6 16 11 11 30 -28 30 -65 100 -137 163 -169 31 -16 86 -31 133
-38 44 -6 87 -14 95 -17 8 -3 20 -6 25 -6 6 -1 14 -11 20 -23 5 -13 12 -23 15
-23 17 1 105 58 103 68 -2 6 3 9 11 6 16 -6 89 73 80 88 -4 6 -3 8 3 5 13 -8
38 37 59 108 13 43 18 94 18 185 1 141 -11 238 -25 205 -6 -17 -8 -17 -8 -2
-1 10 -9 17 -20 17 -27 0 -68 36 -97 86 -15 25 -25 46 -23 48 6 5 222 27 226
23 1 -2 7 -26 12 -53 8 -38 7 -52 -4 -63 -12 -12 -12 -16 2 -26 25 -18 31
-297 9 -398 -44 -197 -161 -326 -344 -381 -30 -8 -59 -14 -65 -13 -9 1 -13
-69 -17 -263 -3 -146 -7 -266 -8 -267 -1 -2 -8 -3 -16 -3 -12 0 -13 44 -9 282
4 189 3 279 -4 275 -15 -9 -22 -109 -24 -319 -1 -191 -4 -232 -20 -222 -5 3
-9 0 -9 -5 0 -6 -11 -11 -25 -11 l-25 0 0 268 0 268 -73 22 c-171 50 -294 180
-343 362 -34 127 -18 413 32 588 l15 52 407 1 c338 1 502 6 555 17 4 1 7 -2 7
-7z m958 -86 c-1 -31 -16 35 -16 70 0 25 2 24 9 -10 4 -22 8 -49 7 -60z
m-4648 50 c20 -24 21 -26 4 -12 -17 14 -23 15 -27 5 -2 -7 -4 0 -4 15 0 15 0
27 1 25 0 -2 12 -16 26 -33z m4527 -58 c-3 -6 -6 -3 -6 8 -1 17 -3 17 -11 5
-7 -12 -10 -8 -10 15 l0 29 16 -22 c8 -12 13 -28 11 -35z m-4539 8 c-3 -3 -9
2 -12 12 -6 14 -5 15 5 6 7 -7 10 -15 7 -18z m76 -29 c14 -19 26 -38 26 -42 0
-4 -10 6 -22 22 -13 16 -29 34 -38 41 -8 7 -10 13 -4 13 7 0 23 -15 38 -34z
m4453 -53 c-3 -10 -5 -2 -5 17 0 19 2 27 5 18 2 -10 2 -26 0 -35z m110 25 c-3
-8 -6 -5 -6 6 -1 11 2 17 5 13 3 -3 4 -12 1 -19z m30 -40 c-2 -13 -4 -3 -4 22
0 25 2 35 4 23 2 -13 2 -33 0 -45z m-4684 31 c12 0 31 -4 42 -9 13 -6 0 -7
-39 -5 -54 4 -92 15 -53 15 10 0 17 6 18 13 0 10 2 10 6 0 2 -7 14 -13 26 -14z
m2000 5 c15 -3 27 -10 27 -14 0 -26 -424 -45 -706 -30 -126 6 -247 13 -269 16
l-40 5 22 -19 c32 -29 118 -40 377 -52 127 -6 231 -12 233 -14 2 -2 -45 -7
-104 -12 -59 -4 -99 -9 -88 -12 34 -7 54 -36 42 -58 -10 -17 -9 -18 9 -5 10 7
2 -2 -18 -21 -50 -46 -103 -62 -164 -48 -61 14 -78 24 -137 79 -36 33 -46 39
-37 21 24 -45 115 -126 175 -155 51 -26 71 -30 145 -30 72 0 96 5 155 29 39
16 83 39 99 50 16 11 27 15 23 10 -3 -6 2 -10 13 -9 25 2 61 35 53 48 -3 5 -1
7 5 3 6 -3 31 20 56 51 l46 58 -93 5 -92 5 110 8 c61 4 125 10 144 13 l34 7
-26 -43 c-84 -142 -225 -257 -379 -309 l-51 -17 2 -192 c1 -105 -1 -238 -5
-296 -6 -91 -9 -106 -24 -106 -16 0 -18 23 -24 249 -4 137 -6 274 -3 303 2 29
2 41 0 26 -3 -22 -10 -28 -29 -28 l-24 0 0 -290 c0 -159 -2 -290 -4 -290 -2 0
-11 -3 -20 -6 -14 -6 -16 26 -16 314 l0 319 -42 7 c-102 17 -245 132 -335 272
-45 70 -70 141 -56 155 5 5 65 10 133 12 178 6 850 -1 883 -9z m-1903 -14 c0
-5 -4 -10 -10 -10 -5 0 -10 5 -10 10 0 6 5 10 10 10 6 0 10 -4 10 -10z m790
-20 c0 -22 -4 -28 -15 -24 -8 4 -15 10 -15 16 0 5 5 6 10 3 6 -3 10 3 10 14 0
12 2 21 5 21 3 0 5 -13 5 -30z m3588 -145 c0 -46 -2 -54 -8 -33 -9 32 -14 104
-10 168 3 45 3 45 10 -15 4 -33 8 -87 8 -120z m-4365 138 c-23 -2 -64 -2 -90
0 -26 2 -7 3 42 3 50 0 71 -1 48 -3z m4444 -65 c-2 -13 -4 -3 -4 22 0 25 2 35
4 23 2 -13 2 -33 0 -45z m718 27 c46 -45 26 -127 -34 -140 -38 -8 -89 17 -101
51 -31 82 74 151 135 89z m-576 -32 c-2 -46 -2 -47 -8 -13 -4 19 -5 41 -3 48
8 24 12 11 11 -35z m-4303 -43 c154 -12 261 -29 273 -44 11 -13 55 -229 76
-373 22 -147 19 -355 -5 -473 -26 -129 -81 -238 -157 -312 -71 -69 -131 -102
-227 -123 -67 -15 -74 -19 -79 -44 -3 -15 -21 -49 -39 -76 -39 -57 -94 -90
-183 -106 -68 -13 -184 -7 -194 10 -4 6 -29 15 -57 20 -162 32 -304 123 -405
260 -164 222 -216 489 -175 901 18 180 35 292 46 310 8 14 147 36 295 48 156
13 678 14 831 2z m4271 -32 c-3 -8 -6 -5 -6 6 -1 11 2 17 5 13 3 -3 4 -12 1
-19z m-98 -72 c-5 -6 -9 10 -8 40 l1 49 8 -40 c5 -22 4 -44 -1 -49z m138 -233
c-1 -54 -3 -10 -3 97 0 107 2 151 3 98 2 -54 2 -142 0 -195z m-2917 242 c-7
-9 -15 -13 -17 -11 -7 7 7 26 19 26 6 0 6 -6 -2 -15z m2697 -152 c-2 -32 -3
-8 -3 52 0 61 1 87 3 58 2 -29 2 -78 0 -110z m90 55 c-3 -8 -6 -5 -6 6 -1 11
2 17 5 13 3 -3 4 -12 1 -19z m-3387 -116 c3 -3 -4 0 -15 6 -11 6 -42 34 -70
63 l-50 53 65 -59 c36 -32 67 -61 70 -63z m3407 71 c-3 -10 -5 -2 -5 17 0 19
2 27 5 18 2 -10 2 -26 0 -35z m-20 -25 c-3 -8 -6 -5 -6 6 -1 11 2 17 5 13 3
-3 4 -12 1 -19z m-10 -350 c-2 -24 -4 -5 -4 42 0 47 2 66 4 43 2 -24 2 -62 0
-85z m130 55 c-3 -10 -5 -2 -5 17 0 19 2 27 5 18 2 -10 2 -26 0 -35z m-10 -90
c-3 -10 -5 -2 -5 17 0 19 2 27 5 18 2 -10 2 -26 0 -35z m-2882 -437 c935 -238
1123 -283 1270 -305 39 -6 86 -14 105 -17 l35 -6 -32 -13 c-79 -34 -453 -161
-643 -220 -230 -71 -541 -150 -753 -190 -339 -65 -537 -155 -688 -312 -36 -37
-77 -88 -92 -113 -33 -57 -57 -149 -57 -217 0 -29 -2 -53 -4 -53 -1 0 -72 22
-157 50 -85 27 -415 132 -734 235 -319 102 -612 196 -651 211 -72 25 -121 64
-128 100 -3 10 -7 28 -11 39 -3 11 1 8 10 -7 16 -28 20 -30 62 -31 12 0 20 -3
18 -7 -2 -4 -16 -6 -30 -5 -14 2 -28 -2 -32 -8 -3 -7 -3 -9 2 -5 4 4 14 0 22
-10 12 -16 13 -15 6 3 -6 18 -5 18 10 6 14 -11 15 -17 5 -30 -9 -11 -6 -10 9
3 20 16 44 18 257 19 218 2 236 3 236 19 0 14 8 18 38 18 21 0 46 6 57 14 16
11 7 14 -72 18 -99 6 -132 18 -234 84 l-65 43 -112 2 c-62 1 -112 5 -112 9 0
13 -44 -1 -57 -18 -10 -12 -13 -12 -13 -2 0 23 74 85 117 98 29 9 105 10 279
6 244 -7 369 1 544 32 425 77 888 280 1220 535 78 60 111 77 145 78 11 0 115
-24 230 -53z m-725 -90 c0 -5 -163 -98 -240 -136 -57 -29 -70 -32 -122 -26
-32 3 -69 8 -83 12 -24 6 -24 6 11 36 19 17 49 51 65 75 l30 43 169 0 c94 0
170 -2 170 -4z m1813 -22 c115 -6 117 -6 117 -30 0 -21 -5 -24 -35 -24 -44 0
-158 23 -245 50 l-65 20 55 -5 c30 -2 108 -7 173 -11z m618 -54 c934 -115
1610 -298 1979 -535 88 -56 175 -141 214 -208 42 -71 47 -157 13 -231 -93
-203 -443 -393 -1032 -561 -1075 -308 -2637 -456 -4043 -385 -1344 68 -2477
283 -3110 590 -167 81 -268 148 -346 230 -199 208 -126 419 209 603 229 125
554 235 986 331 233 52 259 55 252 27 -3 -12 12 -34 49 -70 l53 -52 -47 3 -46
3 51 -47 c42 -38 59 -47 89 -48 32 0 60 -17 188 -112 129 -98 150 -117 150
-140 0 -16 -6 -28 -12 -28 -36 0 -319 220 -463 359 -103 100 -138 120 -152 85
-4 -10 12 -33 47 -69 l53 -53 -44 -12 c-78 -20 -370 -121 -453 -157 -238 -101
-392 -222 -412 -321 -4 -18 -10 -35 -14 -37 -23 -14 -334 111 -411 165 l-27
20 -37 -41 c-272 -302 204 -632 1300 -903 607 -149 1158 -231 1950 -288 242
-17 1165 -18 1375 0 85 7 209 17 275 23 145 12 185 18 185 27 0 4 -343 7 -762
7 -760 0 -911 4 -1358 41 -196 15 -454 43 -660 71 l-125 17 80 13 c44 7 136
15 205 19 155 7 765 -21 880 -40 173 -30 377 -39 705 -33 563 10 1004 61 1405
162 544 137 792 331 676 530 l-27 45 28 11 c67 24 192 92 246 133 l58 44 152
-60 c247 -96 238 -92 226 -125 -12 -35 -77 -104 -137 -145 -24 -16 -90 -52
-148 -80 -100 -47 -135 -76 -76 -62 43 11 191 76 266 118 67 37 138 99 167
144 l14 24 204 -81 c262 -104 301 -115 431 -115 84 0 116 5 159 22 52 20 53
20 35 1 -30 -33 -159 -109 -256 -151 -115 -49 -317 -117 -522 -174 -161 -44
-174 -49 -163 -60 12 -12 356 79 537 141 384 134 557 255 535 374 -15 83 -85
144 -207 182 -68 21 -87 26 -533 124 -236 52 -412 98 -502 130 -1 1 4 23 12
50 27 88 14 167 -38 224 -12 13 -17 21 -10 17 6 -3 83 -20 170 -37 214 -41
408 -90 592 -151 179 -58 253 -90 344 -148 l67 -42 56 32 56 33 -94 49 c-51
28 -122 61 -158 75 -36 13 -67 29 -71 34 -3 5 -77 33 -165 63 -192 65 -539
145 -851 196 -71 11 -73 13 -102 59 -40 62 -87 87 -194 102 -86 12 -87 12 -87
41 0 15 1 28 3 28 2 0 77 -9 168 -20z m-4192 -77 l53 -66 -143 6 c-158 6 -189
0 -189 -37 0 -43 10 -56 44 -56 19 0 61 -17 108 -45 43 -25 84 -45 93 -45 25
0 17 -13 -22 -39 -32 -20 -41 -22 -72 -12 -42 12 -171 89 -310 184 -98 67
-128 93 -119 102 4 4 447 72 483 74 14 1 38 -20 74 -66z m-560 -82 c102 -81
238 -178 336 -241 l71 -45 -19 -32 -18 -32 -72 51 c-126 89 -155 114 -277 231
-105 99 -136 137 -114 137 3 0 45 -31 93 -69z m688 -52 c23 -21 41 -39 39 -39
-2 0 -23 7 -46 15 -23 8 -56 15 -73 15 l-31 0 39 -20 c22 -11 63 -28 92 -37
29 -9 50 -20 47 -24 -2 -4 4 -10 13 -12 12 -3 8 -5 -9 -6 -15 0 -39 4 -52 11
-22 9 -29 8 -46 -7 -35 -32 -106 -11 -217 62 -57 38 -69 69 -30 78 41 9 112
13 172 8 52 -4 64 -9 102 -44z m3959 16 c18 -14 18 -14 -7 -15 -33 0 -108 -27
-399 -140 -543 -212 -790 -297 -1125 -389 -240 -65 -261 -72 -381 -124 -110
-48 -202 -107 -258 -167 -52 -55 -66 -85 -66 -137 0 -34 27 -93 42 -93 18 0 6
-38 -14 -47 -52 -23 -98 36 -98 126 0 82 48 161 154 252 22 19 36 27 32 19 -4
-8 2 -3 14 13 21 26 49 39 34 15 -4 -7 -3 -8 5 -4 6 4 9 11 7 15 -9 14 147 89
259 125 61 19 171 49 245 66 323 76 597 160 1000 305 192 70 415 155 470 179
44 19 61 20 86 1z m-3851 -103 c-3 -3 -11 0 -18 7 -9 10 -8 11 6 5 10 -3 15
-9 12 -12z m3755 -50 c-19 -15 -36 -26 -38 -24 -1 1 -13 -9 -25 -23 -15 -18
-28 -24 -40 -20 -9 4 -17 11 -17 15 0 16 52 49 86 56 19 3 37 10 40 15 3 5 11
9 17 9 7 0 -4 -13 -23 -28z m-4545 -117 c72 -68 76 -74 40 -57 -61 29 -233 84
-248 79 -6 -2 22 -19 63 -38 138 -63 485 -241 501 -258 10 -9 20 -25 23 -37 6
-20 -2 -19 -148 24 -125 37 -153 49 -144 59 17 21 3 26 -35 14 -30 -10 -56 -5
-221 39 -273 75 -278 57 -11 -35 77 -26 144 -51 148 -55 4 -3 -1 -17 -11 -31
-11 -13 -22 -34 -26 -46 -7 -21 -13 -23 -79 -23 -144 0 -388 -13 -380 -21 9
-8 221 -42 373 -60 52 -6 95 -12 95 -12 0 -1 10 -13 22 -27 l22 -25 -206 7
c-220 7 -382 24 -610 64 -166 29 -173 31 -173 53 0 54 97 151 220 220 146 81
594 238 685 240 12 1 54 -31 100 -74z m4905 50 c20 -24 14 -99 -10 -150 -43
-88 -190 -201 -359 -275 -390 -170 -1145 -305 -1665 -298 -84 1 -113 3 -66 5
764 26 1521 189 1895 407 22 13 42 23 45 23 9 -2 61 55 95 105 39 56 50 101
41 158 -7 42 3 51 24 25z m-295 -21 c-29 -24 -77 -54 -64 -40 11 12 84 65 89
65 3 0 -8 -11 -25 -25z m165 -39 c0 -64 -95 -160 -227 -228 -326 -167 -994
-313 -1568 -342 l-120 -6 72 35 c96 46 117 51 334 81 667 90 1249 269 1464
449 35 29 45 32 45 11z m-254 -20 c-30 -23 -222 -99 -205 -81 5 5 207 93 219
95 3 0 -4 -6 -14 -14z m1419 -25 c-3 -5 -12 -10 -18 -10 -7 0 -6 4 3 10 19 12
23 12 15 0z m-5429 -66 c1 -14 0 -23 -3 -20 -4 3 -8 18 -9 32 -2 14 0 24 3 20
3 -3 7 -17 9 -32z m4626 -144 c264 -55 872 -190 926 -205 29 -9 67 -29 84 -44
30 -27 31 -31 19 -53 -30 -57 -132 -85 -248 -68 -95 13 -142 29 -434 150 -305
126 -516 210 -529 210 -12 0 -12 3 -4 24 8 22 21 21 186 -14z m-4828 -116
c138 -47 255 -90 259 -94 12 -11 -51 -19 -274 -35 -216 -16 -221 -15 -259 48
-32 51 -23 167 11 167 6 0 124 -39 263 -86z m251 -753 l30 -7 -25 -8 -25 -7
29 -13 c27 -12 28 -14 10 -23 -10 -6 -25 -8 -33 -5 -9 3 -11 0 -6 -8 9 -15 25
-17 -250 32 l-190 33 170 5 c249 8 257 8 290 1z m28 -88 c-7 -2 -19 -2 -25 0
-7 3 -2 5 12 5 14 0 19 -2 13 -5z"/>
<path d="M4660 9109 c0 -5 5 -7 10 -4 6 3 10 8 10 11 0 2 -4 4 -10 4 -5 0 -10
-5 -10 -11z"/>
<path d="M3999 8613 c-13 -16 -12 -17 4 -4 9 7 17 15 17 17 0 8 -8 3 -21 -13z"/>
<path d="M3800 8470 c-9 -6 -10 -10 -3 -10 6 0 15 5 18 10 8 12 4 12 -15 0z"/>
<path d="M3829 8463 c-13 -16 -12 -17 4 -4 9 7 17 15 17 17 0 8 -8 3 -21 -13z"/>
<path d="M3616 8273 c1 -6 0 -14 -4 -17 -10 -11 -11 -37 -1 -30 5 3 7 10 4 15
-4 5 0 12 9 15 8 3 17 13 20 21 5 13 4 14 -8 4 -8 -7 -16 -8 -18 -4 -3 4 -4 3
-2 -4z"/>
<path d="M3489 8253 c-13 -16 -12 -17 4 -4 9 7 17 15 17 17 0 8 -8 3 -21 -13z"/>
<path d="M3460 8209 c0 -5 5 -7 10 -4 6 3 10 8 10 11 0 2 -4 4 -10 4 -5 0 -10
-5 -10 -11z"/>
<path d="M3556 8173 c-6 -14 -5 -15 5 -6 7 7 10 15 7 18 -3 3 -9 -2 -12 -12z"/>
<path d="M7885 8320 c3 -5 8 -10 11 -10 2 0 4 5 4 10 0 6 -5 10 -11 10 -5 0
-7 -4 -4 -10z"/>
<path d="M8033 8202 c-9 -15 -8 -19 3 -19 8 0 14 4 14 9 0 5 6 6 13 2 8 -5 8
-2 -2 9 -16 21 -14 21 -28 -1z"/>
<path d="M8056 8171 c-3 -4 4 -17 16 -27 12 -11 18 -13 14 -6 -4 6 -3 12 2 12
13 0 23 -28 13 -32 -5 -2 1 -12 11 -23 18 -19 19 -19 12 -1 -5 14 -4 17 4 12
7 -4 12 -2 12 6 0 10 2 10 9 -1 6 -9 9 -5 9 13 0 24 -2 25 -14 9 -13 -16 -15
-17 -24 -2 -13 23 -58 51 -64 40z"/>
<path d="M8166 8065 c4 -8 10 -12 15 -9 5 3 14 -6 21 -20 6 -14 15 -26 19 -26
5 0 6 -8 3 -17 -5 -15 -4 -16 5 -3 8 11 11 12 11 2 0 -7 5 -10 10 -7 6 4 0 15
-15 27 -21 16 -25 26 -20 47 4 19 3 22 -5 11 -6 -10 -10 -11 -10 -2 0 6 -9 12
-20 12 -13 0 -18 -5 -14 -15z"/>
<path d="M8175 8030 c3 -5 8 -10 11 -10 2 0 4 5 4 10 0 6 -5 10 -11 10 -5 0
-7 -4 -4 -10z"/>
<path d="M8450 7982 c0 -6 4 -13 9 -16 5 -3 7 -16 3 -29 -5 -20 -4 -21 11 -8
15 12 17 12 11 -3 -4 -12 -2 -15 9 -10 10 3 17 -1 20 -13 3 -12 5 -13 5 -3 1
8 -14 33 -33 54 -19 22 -35 34 -35 28z"/>
<path d="M8240 7959 c0 -4 9 -13 20 -19 16 -8 20 -8 20 3 0 8 -9 17 -20 20
-11 3 -20 1 -20 -4z"/>
<path d="M8421 7934 c0 -11 3 -14 6 -6 3 7 2 16 -1 19 -3 4 -6 -2 -5 -13z"/>
<path d="M8281 7917 c2 -1 12 -9 22 -16 15 -12 17 -12 11 3 -3 9 -13 16 -22
16 -8 0 -13 -1 -11 -3z"/>
<path d="M8282 7884 c10 -10 20 -16 22 -13 3 3 -5 11 -17 18 -21 13 -21 12 -5
-5z"/>
<path d="M8335 7829 c-4 -5 -4 -13 -1 -16 3 -4 6 0 6 8 0 11 2 11 10 -1 6 -9
10 -10 10 -3 0 17 -17 25 -25 12z"/>
<path d="M8566 7798 c3 -5 10 -6 15 -3 13 9 11 12 -6 12 -8 0 -12 -4 -9 -9z"/>
<path d="M8895 6991 c-3 -5 -2 -12 3 -15 5 -3 9 1 9 9 0 17 -3 19 -12 6z"/>
<path d="M8925 6990 c-3 -5 -1 -10 4 -10 6 0 11 5 11 10 0 6 -2 10 -4 10 -3 0
-8 -4 -11 -10z"/>
<path d="M8645 6840 c-3 -6 1 -7 9 -4 18 7 21 14 7 14 -6 0 -13 -4 -16 -10z"/>
<path d="M8440 6710 c-8 -5 -12 -12 -9 -15 4 -3 12 1 19 10 14 17 11 19 -10 5z"/>
<path d="M3480 7881 c-11 -16 -17 -31 -13 -33 17 -9 37 -2 40 12 4 13 3 13 -6
0 -9 -12 -11 -13 -11 -1 0 8 7 23 17 33 9 10 11 18 5 18 -6 0 -20 -13 -32 -29z"/>
<path d="M3426 7722 c-2 -4 -1 -14 5 -22 7 -12 9 -10 9 8 0 23 -5 28 -14 14z"/>
<path d="M3766 7612 c-3 -5 1 -9 9 -9 8 0 12 4 9 9 -3 4 -7 8 -9 8 -2 0 -6 -4
-9 -8z"/>
<path d="M3849 7579 c-5 -28 -4 -51 4 -56 6 -3 7 -1 3 5 -4 7 -3 12 3 12 10 0
9 25 -2 36 -4 4 -7 5 -8 3z"/>
<path d="M3956 7445 c9 -38 12 -42 20 -21 4 11 0 24 -10 34 -16 16 -17 15 -10
-13z"/>
<path d="M3920 7450 c0 -5 5 -10 11 -10 5 0 7 5 4 10 -3 6 -8 10 -11 10 -2 0
-4 -4 -4 -10z"/>
<path d="M4025 7380 c6 -10 4 -12 -11 -6 -15 6 -17 5 -6 -5 9 -9 15 -10 23 -2
8 8 7 13 -2 18 -8 6 -10 4 -4 -5z"/>
<path d="M4028 7340 c12 -5 22 -16 22 -24 0 -7 9 -16 20 -19 15 -4 18 -10 13
-24 -3 -10 -3 -15 1 -12 4 4 9 19 12 35 3 19 1 24 -5 15 -6 -9 -11 -10 -15 -2
-4 6 -4 11 0 11 4 0 -1 7 -12 15 -10 8 -28 14 -39 14 -18 0 -18 -1 3 -9z"/>
<path d="M4020 7304 c0 -8 5 -12 10 -9 6 3 10 10 10 16 0 5 -4 9 -10 9 -5 0
-10 -7 -10 -16z"/>
<path d="M4120 7272 c6 -13 14 -21 18 -18 3 4 -2 14 -12 24 -18 16 -18 16 -6
-6z"/>
<path d="M4120 7229 c0 -6 36 -19 44 -16 1 1 10 -4 19 -12 20 -16 23 -36 5
-25 -7 4 -5 -2 5 -13 16 -19 14 -33 -5 -33 -5 0 -6 5 -2 12 4 7 3 8 -4 4 -8
-5 -12 1 -12 16 -1 21 -2 21 -11 5 -8 -14 -6 -22 13 -37 13 -11 27 -19 31 -20
16 0 36 -28 41 -56 2 -16 5 -30 5 -32 1 -1 10 2 22 9 27 14 48 -3 30 -25 -7
-9 -8 -16 -2 -20 5 -4 12 -2 16 4 3 5 3 10 -1 10 -4 0 1 9 10 19 13 14 14 21
5 27 -8 4 -10 3 -5 -4 4 -7 3 -12 -2 -12 -16 0 -22 13 -11 26 7 9 4 16 -10 26
-12 8 -19 18 -16 21 3 4 2 5 -2 2 -3 -3 -12 3 -19 13 -10 13 -12 14 -11 2 1
-8 -2 -15 -8 -15 -5 0 -9 3 -7 8 1 4 -5 7 -14 7 -10 0 -14 6 -11 14 3 7 0 19
-6 25 -8 8 -8 11 0 11 15 0 34 -25 25 -35 -4 -5 -1 -5 6 -1 19 11 -62 99 -93
101 -14 0 -25 -2 -25 -6z m155 -149 c4 -6 10 -8 15 -5 5 3 11 1 15 -4 3 -6 -4
-15 -16 -21 -15 -8 -19 -8 -15 -1 4 7 1 9 -8 5 -10 -4 -14 0 -13 15 1 22 12
27 22 11z"/>
<path d="M4088 7213 c7 -3 16 -2 19 1 4 3 -2 6 -13 5 -11 0 -14 -3 -6 -6z"/>
<path d="M4110 7165 c-7 -8 -8 -15 -2 -15 5 0 15 7 22 15 7 8 8 15 2 15 -5 0
-15 -7 -22 -15z"/>
<path d="M4332 6994 c-13 -28 -5 -35 40 -31 29 2 40 17 12 17 -9 0 -12 5 -8
12 4 7 3 8 -5 4 -6 -4 -8 -13 -4 -19 4 -7 -1 -6 -11 2 -12 10 -14 16 -5 21 7
5 7 10 2 13 -6 4 -15 -5 -21 -19z"/>
<path d="M4407 6935 c-4 -8 -2 -17 3 -20 5 -3 7 -12 3 -20 -6 -17 13 -20 23
-4 4 7 0 16 -9 21 -9 5 -14 15 -11 23 4 8 4 15 1 15 -3 0 -7 -7 -10 -15z"/>
<path d="M8242 6360 c0 -14 2 -19 5 -12 2 6 2 18 0 25 -3 6 -5 1 -5 -13z"/>
<path d="M4289 6460 c-170 -8 -330 -24 -386 -39 -26 -7 -23 -9 27 -20 124 -27
248 -35 585 -35 340 0 507 9 625 35 l55 13 -55 12 c-134 31 -543 47 -851 34z"/>
<path d="M5178 6363 c-10 -2 -19 -14 -19 -26 -1 -19 -2 -20 -6 -3 -5 18 -12
18 -117 11 -61 -4 -331 -9 -599 -10 -268 -2 -491 -6 -494 -9 -4 -3 -4 -8 -2
-11 13 -12 149 -25 374 -36 256 -13 647 -2 783 22 31 5 72 12 90 15 26 4 32
10 32 29 0 24 -7 27 -42 18z"/>
<path d="M3852 6240 c-30 -247 -36 -380 -24 -489 36 -324 201 -603 417 -706
98 -47 163 -58 291 -53 117 5 169 22 209 69 15 18 15 20 3 10 -22 -17 -23 -3
-2 27 8 12 22 35 31 50 l15 27 -6 -27 c-9 -42 2 -33 13 10 10 37 12 38 77 49
90 16 162 53 228 120 69 68 129 186 152 298 24 118 22 325 -6 515 -12 85 -23
156 -25 158 -1 1 -15 -1 -31 -4 l-30 -6 13 -96 c7 -53 11 -101 9 -107 -2 -5
-5 4 -5 20 -1 23 -4 27 -11 15 -10 -16 -16 29 -12 98 1 17 -3 32 -8 32 -6 0
-10 7 -10 16 0 18 13 18 -320 -6 -69 -5 -188 -10 -265 -10 l-140 0 -18 -44
c-21 -50 -73 -108 -120 -133 -49 -25 -186 -30 -244 -8 -95 36 -147 109 -162
226 -7 54 -7 53 -19 -51z m1339 -221 c-5 -26 -9 -34 -10 -19 -1 27 9 73 15 67
2 -2 0 -23 -5 -48z m-471 -970 c-25 -17 -76 -42 -68 -34 13 14 62 44 73 44 6
0 3 -4 -5 -10z"/>
<path d="M5227 4937 c4 -6 0 -8 -9 -5 -8 4 -15 0 -15 -7 0 -9 6 -11 16 -6 9 5
23 10 31 13 10 3 8 6 -8 10 -14 4 -20 2 -15 -5z"/>
<path d="M4705 4820 c-13 -5 -14 -9 -5 -9 8 0 24 4 35 9 13 5 14 9 5 9 -8 0
-24 -4 -35 -9z"/>
<path d="M4768 4803 c7 -3 16 -2 19 1 4 3 -2 6 -13 5 -11 0 -14 -3 -6 -6z"/>
<path d="M6248 4733 c7 -3 16 -2 19 1 4 3 -2 6 -13 5 -11 0 -14 -3 -6 -6z"/>
<path d="M4510 4712 c0 -5 7 -9 15 -9 8 0 15 4 15 9 0 4 -7 8 -15 8 -8 0 -15
-4 -15 -8z"/>
<path d="M4595 4710 c3 -5 16 -10 28 -9 21 0 21 1 2 9 -28 12 -37 12 -30 0z"/>
<path d="M4695 4704 c18 -14 18 -14 -11 -8 -21 4 -34 1 -43 -10 -9 -11 -10
-16 -2 -16 6 0 11 5 11 10 0 6 8 10 18 10 15 0 15 -2 2 -11 -12 -8 -9 -9 13
-5 20 5 27 3 27 -8 0 -10 6 -13 16 -9 9 3 20 0 25 -8 7 -11 12 -12 28 -2 15
10 20 9 25 -2 5 -14 60 -33 117 -40 30 -4 122 -36 117 -41 -2 -1 -113 26 -248
61 -135 35 -236 64 -226 64 11 1 17 3 15 6 -11 10 -79 -8 -79 -21 0 -8 6 -14
14 -14 17 0 28 -51 14 -67 -8 -10 -3 -13 22 -13 45 0 191 -50 183 -63 -4 -7 1
-8 12 -4 10 4 32 3 49 -3 78 -26 224 -62 253 -63 18 0 29 -5 26 -11 -4 -5 1
-7 10 -3 10 3 17 3 17 -2 0 -4 6 -8 13 -8 6 0 53 -8 102 -17 50 -9 119 -15
155 -14 l65 2 -80 5 c-73 5 -80 8 -77 26 2 12 0 16 -5 9 -13 -18 -42 -24 -65
-14 -20 8 -18 9 15 9 31 1 37 4 37 24 0 18 2 19 11 7 11 -15 9 -4 -8 52 -4 15
-3 19 5 14 7 -4 12 -2 12 4 0 8 -9 10 -27 5 -23 -5 -25 -4 -14 9 7 8 19 12 27
9 11 -4 14 5 14 41 l0 47 -152 -2 c-119 -1 -147 -4 -130 -13 19 -10 17 -11
-18 -12 -22 -1 -37 3 -34 7 3 5 10 6 16 3 7 -5 8 -2 3 6 -5 9 -24 11 -64 7
-31 -3 -48 -3 -38 0 10 3 17 14 17 30 0 24 0 25 -80 21 -55 -2 -80 1 -80 8 0
7 -7 15 -16 18 -26 10 -30 6 -9 -10z m-120 -64 c17 -8 16 -8 -7 -7 -16 1 -28
5 -28 9 0 10 9 9 35 -2z m140 -40 c13 -6 15 -9 5 -9 -8 0 -22 4 -30 9 -18 12
-2 12 25 0z m320 0 c-3 -5 -14 -10 -23 -9 -14 0 -13 2 3 9 27 11 27 11 20 0z
m-238 -26 c-3 -3 -12 -4 -19 -1 -8 3 -5 6 6 6 11 1 17 -2 13 -5z m80 -20 c-3
-3 -12 -4 -19 -1 -8 3 -5 6 6 6 11 1 17 -2 13 -5z m286 -16 c20 -6 36 -13 34
-15 -5 -4 -130 27 -137 34 -6 6 50 -4 103 -19z m-188 -9 c14 -6 9 -7 -15 -3
-19 4 -44 11 -55 15 -14 6 -9 7 15 3 19 -4 44 -11 55 -15z m52 -15 c-3 -3 -12
-4 -19 -1 -8 3 -5 6 6 6 11 1 17 -2 13 -5z m222 -16 c-1 -16 -3 -18 -6 -6 -2
9 -12 19 -21 21 -12 3 -10 5 6 6 17 1 22 -4 21 -21z m-182 6 c-3 -3 -12 -4
-19 -1 -8 3 -5 6 6 6 11 1 17 -2 13 -5z m73 -14 c20 -6 21 -8 5 -8 -11 0 -31
4 -45 8 -20 6 -21 8 -5 8 11 0 31 -4 45 -8z m108 -25 c1 -1 -5 -4 -15 -7 -10
-2 -29 2 -43 9 -24 13 -23 13 15 7 22 -4 41 -8 43 -9z"/>
<path d="M4598 4683 c7 -3 16 -2 19 1 4 3 -2 6 -13 5 -11 0 -14 -3 -6 -6z"/>
<path d="M5795 4620 c6 -10 4 -12 -8 -7 -9 3 -18 3 -21 -1 -3 -4 4 -8 14 -9
23 -2 35 13 19 23 -8 5 -9 3 -4 -6z"/>
<path d="M5845 4610 c-3 -6 1 -7 9 -4 18 7 21 14 7 14 -6 0 -13 -4 -16 -10z"/>
<path d="M5765 4581 c3 -6 -3 -14 -12 -20 -10 -6 -13 -10 -8 -10 6 0 18 6 28
13 16 12 16 14 2 20 -9 3 -13 2 -10 -3z"/>
<path d="M5520 4545 c0 -11 -11 -15 -40 -15 -36 0 -40 -2 -40 -25 0 -24 3 -25
54 -25 30 0 58 -4 61 -10 3 -5 11 -10 16 -10 6 0 7 5 3 12 -5 7 -3 8 5 4 9 -6
8 -13 -5 -27 -21 -23 -12 -24 22 -3 19 13 22 20 13 30 -9 11 -7 14 7 15 11 1
24 1 31 0 6 -1 14 3 18 9 3 5 0 10 -7 10 -8 0 -6 6 6 18 13 12 20 14 23 5 7
-19 21 -16 33 7 18 34 -35 26 -72 -10 -16 -16 -31 -30 -34 -30 -9 0 -3 20 12
34 8 9 12 16 7 16 -5 0 -15 -6 -22 -12 -10 -11 -11 -10 -6 5 6 15 1 17 -39 17
-34 0 -46 -4 -46 -15z"/>
<path d="M4695 4520 c3 -5 10 -10 16 -10 5 0 9 5 9 10 0 6 -7 10 -16 10 -8 0
-12 -4 -9 -10z"/>
<path d="M5527 4455 c-4 -8 -3 -16 1 -19 13 -8 35 11 28 23 -10 15 -23 14 -29
-4z"/>
<path d="M5707 4443 c-4 -3 -7 -11 -7 -17 0 -6 5 -5 12 2 6 6 9 14 7 17 -3 3
-9 2 -12 -2z"/>
<path d="M5521 4410 c-23 -20 -23 -20 -2 -20 12 0 19 5 16 10 -3 6 1 10 9 10
9 0 16 5 16 10 0 15 -12 12 -39 -10z"/>
<path d="M5639 4383 c-13 -16 -12 -17 4 -4 9 7 17 15 17 17 0 8 -8 3 -21 -13z"/>
<path d="M9620 4550 c-25 -11 -56 -19 -68 -19 l-24 -1 26 -27 c14 -16 32 -37
40 -47 13 -19 15 -19 63 12 27 18 64 37 81 43 41 14 40 21 -3 42 -43 21 -57
20 -115 -3z"/>
<path d="M9728 4423 c6 -2 18 -2 25 0 6 3 1 5 -13 5 -14 0 -19 -2 -12 -5z"/>
<path d="M7063 3433 c9 -2 25 -2 35 0 9 3 1 5 -18 5 -19 0 -27 -2 -17 -5z"/>
</g>
</svg>
